<svg width="198" height="36" viewBox="0 0 198 36" fill="none" xmlns="http://www.w3.org/2000/svg">
<g clip-path="url(#clip0)">
<path d="M109.6 18.6C110 18.2 109.7 17.7 109.2 18.1C109 18.2 108.9 18.5 109.1 18.7C109.2 18.9 109.4 18.9 109.6 18.6Z" fill="#4D5363"/>
<path d="M100.5 11.8C98 12.1 98.7 12.6 101.5 12.6C104.4 12.6 105.7 12.2 104.1 11.7C103 11.5 102.9 11.5 100.5 11.8Z" fill="#4D5363"/>
<path d="M148.3 13.6C150.7 13.6 150.9 13.6 150 13.2C149.6 13 148.7 13 148.2 13.1C147.6 13.2 146.7 13.1 146 12.8C145.2 12.5 144.5 12.4 143.7 12.6C142.8 12.8 142.3 12.7 141.8 12.4C141 11.9 138.9 12 137.4 12.6C136.8 12.8 136.4 13.1 136.4 13.3C136.4 13.5 138.6 13.6 148.3 13.6Z" fill="#4D5363"/>
<path d="M197.1 10.7C196.9 9.3 196.7 7.5 196.7 6.7C196.7 5.8 196.5 5 196.2 4.6C195.5 3.9 194.6 3.8 194.3 4.5C194.2 4.8 193.9 5 193.6 5C193.3 5 193 5.2 193 5.4C192.9 5.7 192.6 5.5 192.2 5C191.6 4.2 191.6 4.2 192.2 3.7C193.2 3 192.6 2.3 191.1 2.3C190.3 2.3 189.5 2.1 189.3 1.9C189 1.6 188.7 1.6 188.3 1.8C188 2 186.4 2.1 184.7 2C183.1 1.9 179.7 1.9 177.3 1.9C174.9 1.9 172.7 1.8 172.5 1.6C171.7 0.900001 157.8 1.3 156.3 2C155.2 2.5 150.5 3 150.5 2.6C150.5 2.5 150.8 2.3 151.2 2.3C152.8 2.2 154.1 1.8 154.1 1.5C154.1 1.2 153.4 1.2 151.9 1.4C150.7 1.5 149.2 1.6 148.7 1.6C148.1 1.6 147.8 1.7 148 1.9C148.1 2.1 148.1 2.2 147.9 2.2C147.7 2.2 147.5 2 147.5 1.7C147.5 1.4 147.2 1.2 146.8 1.1C145.9 0.900001 138.9 1.1 138.7 1.3C138.6 1.4 138.9 1.7 139.5 1.9C140.5 2.3 140.5 2.3 138.8 2.4C137.9 2.5 137 2.4 136.8 2.2C136.6 2 136.7 1.8 137.4 1.8C137.9 1.8 138.2 1.7 138.1 1.5C137.8 1 135.6 1.1 135.6 1.6C135.6 1.8 135.3 2.2 134.9 2.4C134.4 2.7 134 2.7 133 2.3C132.2 2 131.6 1.9 131.3 2.1C130.5 2.5 128.6 2.8 128.6 2.4C128.6 1.7 130.1 1.3 132.5 1.5C134.3 1.6 135 1.5 135.3 1.2C135.5 0.900001 135.6 0.700002 135.5 0.600002C135.1 0.200002 127.4 0.300002 126.9 0.800002C126.5 1.1 126.4 1.1 126.2 0.800002C126.1 0.500001 125.6 0.400001 123.7 0.700001C121.9 0.900001 121.4 1.1 121.7 1.4C121.9 1.6 121.9 1.9 121.7 2C121.5 2.1 120.9 1.7 120.4 1.1C119.5 0.200001 119.3 0.100001 118.6 0.400001C118 0.700001 117.7 0.700001 117.5 0.400001C117.2 0.100001 116.3 1.48267e-06 113.4 0.100001C112.6 0.100001 112.7 0.800002 113.5 0.800002C113.9 0.800002 114.1 0.900001 114 1.2C113.9 1.4 113.5 1.5 113.1 1.4C112.7 1.3 112.2 1.4 111.9 1.5C111.5 1.7 111.1 1.5 110.5 0.800002C109.6 -0.299999 108.9 -0.399999 108.6 0.400001C108.4 0.800001 108.3 0.800002 108.1 0.500001C107.9 0.200001 105.9 0.100001 100.8 1.48267e-06C96.7 0.100001 93.3 1.48267e-06 93.1 1.48267e-06C92.9 1.48267e-06 88.6 0.100001 83.5 0.200001C78.4 0.300001 73.7 0.400001 73.1 0.400001C72.1 0.400001 69.4 0.400002 62.5 0.300002C61.5 0.300002 58.8 0.300002 56.5 0.300002C48.5 0.400002 26.1 0.400002 21.9 0.300002C19.5 0.200002 15.9 0.400002 13.8 0.600002C9.10001 1.1 8.7 1.1 6.9 0.800002C5.8 0.700002 5.5 0.700001 5.3 1.1C5.2 1.5 4.7 1.7 4 1.7H2.9V3.4C2.9 4.3 2.8 5.2 2.6 5.5C2.3 5.6 2.2 6 2.2 6.3C2.2 6.6 1.7 7.2 1 7.6C0.200004 8.1 -0.0999956 8.6 4.44055e-06 8.9C0.100004 9.2 0.300004 9.8 0.400004 10.4C0.500004 10.9 0.900004 11.5 1.2 11.8C1.6 12.1 1.7 12.3 1.5 12.5C0.900004 12.9 1.1 13.7 2.1 15C2.9 16 3 16.3 2.7 16.6C2.4 16.9 2.5 17.1 3.2 17.7C3.9 18.2 4.1 18.5 3.9 19.4C3.8 20.2 3.9 20.6 4.3 20.9C4.6 21.1 4.8 21.7 4.8 22.1C4.8 22.5 5 23.3 5.3 23.8C5.6 24.3 5.8 25.1 5.8 25.5C5.8 26.6 7 29.1 7.6 29.4C8 29.5 8.10001 30 8.10001 30.9C8.10001 33.1 9.50001 33.6 11.8 32.1C13.1 31.3 13.9 31.2 13.6 32.1C13.5 32.3 13.7 32.7 13.9 32.9C14.3 33.2 14.9 33.2 16.7 32.8C18 32.5 19.3 32.2 19.7 31.9C20.1 31.7 21.4 31.5 22.7 31.6C24 31.6 25.1 31.6 25.4 31.4C25.9 31.1 34.2 30.5 40 30.4C45.4 30.2 49 29.9 49.5 29.6C49.7 29.4 50.5 29.5 51.5 29.8C52.4 30.1 53.3 30.2 53.5 30C53.7 29.9 55.3 29.7 57 29.7C58.7 29.7 63.1 29.6 66.8 29.4C79.5 29 80.6 29 82.5 29.3C83.6 29.4 84.6 29.7 84.8 29.9C85.2 30.3 83.9 30.7 83.4 30.4C83.2 30.3 83.1 30.4 83.1 30.5C83.1 30.7 83.4 30.9 83.7 30.9C84 30.9 84.5 31.1 84.8 31.3C85.4 31.8 92.1 32.1 92.8 31.7C93.5 31.3 95.7 31.2 96.6 31.6C97.2 31.8 97.6 31.8 97.8 31.6C98.3 31.1 99.2 31.2 100.5 31.9C101.2 32.3 101.9 32.5 102.1 32.3C102.3 32.2 103.8 32 105.5 32C107.1 32 109.2 31.9 110.1 31.9C112 31.8 124.9 32.2 131.7 32.5C135.8 32.7 136.4 32.6 136.6 32.2C136.8 31.8 137.2 31.7 138.8 31.8C139.9 31.9 141 31.8 141.2 31.6C141.7 31.1 144 31.1 144.8 31.5C145.2 31.7 146.2 31.7 147.3 31.6C148.8 31.4 149.4 31.5 150.3 32C151.8 32.7 157.9 33.7 161.4 33.6C162.9 33.6 165.8 33.7 168 33.8C170.2 33.9 173.4 34 175.1 33.9C179.9 33.8 183.9 34.2 187 34.9C189 35.4 189.1 35.4 188.9 34.6C188.8 34.1 188.9 33.9 189.6 33.9C190.1 33.9 190.7 34.1 190.9 34.4C191.6 35.2 192 35 191.8 33.9C191.7 33.3 191.7 32.7 191.9 32.4C192.5 31.6 191.7 30.4 190.5 30.1C188.9 29.8 187 27.9 187 26.6C187 25.6 187.4 25.3 187.8 25.9C187.9 26.1 188.4 26.2 188.8 26.1C189.4 26 189.9 26.1 190.7 26.7C191.9 27.6 193.8 28.3 194.3 28C194.5 27.9 194.5 27 194.4 25.8C194.2 24.4 194.3 23.7 194.7 23.2C195.5 22.1 194.5 20.1 192.8 19.3C192 18.9 191.2 18.6 190.9 18.6C190.3 18.6 188.4 17.9 187.4 17.4C187 17.2 186.2 17 185.6 17C185 17 184.2 16.8 183.7 16.6C182.3 16 162.6 16 162.6 16.7C162.6 17 162.3 17.3 161.9 17.4C161.3 17.6 161.3 17.7 162.1 17.7C163.9 17.7 163.5 19 161.7 19C161.2 19 160.7 19.1 160.6 19.2C160.2 19.6 157.4 19.6 156.1 19.2C155.1 18.9 153.2 18.8 148.7 18.9C142.3 19 139.8 18.8 142.3 18.3C143 18.2 144 18 144.5 17.9C145 17.8 145.9 17.6 146.6 17.5L147.9 17.3L147.1 16.8L146.3 16.3H147.3C150.9 16.2 152.5 15.7 149.3 15.6C148.2 15.6 144.1 15.5 140.2 15.5C132.5 15.4 124.6 15.1 120.3 14.9C118.8 14.8 113.4 14.6 108.4 14.5C97 14.3 87.7 13.6 86 13C85.2 12.7 75.8 12.8 70.7 13.2C68.8 13.3 67.6 13.3 67.5 13.1C67.4 12.9 67.7 12.7 68.2 12.6C71.4 12 73.4 11.7 74 11.9C74.4 12 74.8 12 74.9 11.8C75 11.6 75.6 11.3 76.3 11.2C77.3 11 77.4 11 77 11.5C76.8 11.8 76.7 12.1 76.8 12.2C77.6 13 80.7 11.4 81.6 9.7L82.1 8.6H89.1C93.3 8.6 96 8.7 95.9 8.9C95.8 9.1 95.4 9.1 95.1 9C94.7 8.9 94.1 9.2 93.3 10.1C92.3 11.1 92.2 11.4 92.6 11.5C92.9 11.6 93.3 11.5 93.5 11.3C93.7 11.1 94.3 10.9 94.8 10.9C95.5 10.9 95.7 10.7 95.7 10.3C95.7 9.3 96.5 9 98.6 9.4C100.4 9.7 107.6 9.4 108 9C108 9 109.1 8.9 110.3 8.8C112.4 8.7 113.2 9 112 9.4C110.8 9.9 111.9 9.9 113.7 9.4C115.2 9 115.7 9 116.1 9.3C117.2 10.2 125.1 10.1 126.8 9.2C127.4 8.9 130.5 9.5 131.4 10C131.6 10.1 132.6 9.9 133.7 9.5C135.6 8.9 135.8 8.9 137.5 9.4C138.5 9.7 139.6 9.9 139.9 9.8C140.2 9.7 142.1 9.5 144 9.4C146.7 9.3 147.8 9.3 148.5 9.7C149.4 10.2 150.9 10 151.7 9.3C151.9 9.1 152.7 9.1 153.5 9.2L154.9 9.4L154.1 10C153.4 10.5 153.4 10.6 153.9 10.6C154.2 10.6 154.9 10.4 155.3 10.1C156 9.7 156.4 9.6 157.9 9.9C160 10.3 162.1 10.3 165.5 10C166.9 9.9 168 9.9 168.1 10C168.2 10.1 168.4 10.2 168.6 10.1C168.8 10 169.3 10.2 169.7 10.4C170.3 10.9 170.3 10.9 169.6 10.9C169.2 10.9 168.9 11 168.9 11.2C168.9 11.7 170.8 12.3 171.7 12C174.1 11.4 175.6 11.5 176.3 12.1C176.7 12.4 177.4 12.9 178 13.2C178.9 13.6 179.1 13.6 179.8 13.2C180.3 12.9 180.6 12.8 180.9 13.1C181.6 13.8 179.8 14.3 177 14.3C175.5 14.3 174.3 14.4 174.3 14.5C174.3 14.9 178.4 15 178.9 14.7C179.2 14.5 179.3 14.5 179.3 14.8C179.3 15.3 180.8 15 181.5 14.3C182.1 13.7 182.4 13.7 182.9 14.3C183.2 14.6 183.6 14.7 184 14.6C184.5 14.4 184.6 14.5 184.5 14.9C184.3 15.5 185.1 15.6 186.5 15.2C187.6 14.9 187.4 14.1 186.3 14.1C185.2 14.1 185.1 13.9 185.9 13C186.6 12.3 187.3 12.2 188.3 12.9C189 13.4 189.3 13.4 190.5 13C192 12.6 192.5 12.6 195.4 13.4C196.3 13.6 197.1 13.7 197.2 13.6C197.4 13.4 197.3 12.2 197.1 10.7ZM12.3 28.5C12 28.5 11.8 28.4 11.8 28.2C11.8 28 12 27.9 12.3 27.9C12.6 27.9 12.8 28 12.8 28.2C12.8 28.4 12.6 28.5 12.3 28.5ZM175.9 26.5C176.1 26.5 176.7 26.4 177.1 26.3C178.2 26 178 26.7 176.8 27.1C176.2 27.3 175.7 27.5 175.6 27.5C175.5 27.5 175.5 27.3 175.5 27C175.5 26.8 175.7 26.5 175.9 26.5ZM171.3 26.2C171.4 26.2 172 26 172.7 25.7C174.3 25 174.6 25.6 173.1 26.4C172.2 26.8 171.8 26.9 171.5 26.6C171.2 26.4 171.1 26.2 171.3 26.2ZM163.9 17C164.4 17 164.5 17.1 164.3 17.2C164.1 17.3 163.7 17.3 163.5 17.2C163.3 17.1 163.4 17 163.9 17ZM157.7 26.9C158.1 26.9 159.2 26.5 160.1 26.1C161.3 25.5 162.1 25.3 163.1 25.4C163.8 25.5 165 25.6 165.7 25.6C167.4 25.6 167 26 164.6 26.5C163.6 26.7 162.1 27.1 161.4 27.2C160.7 27.4 159.4 27.5 158.7 27.5C157.9 27.5 157.2 27.4 157.1 27.2C157 27 157.2 26.9 157.7 26.9ZM126 18.1C126.4 17.5 128.4 17 129.9 17C130.7 17 131.4 16.9 131.4 16.7C131.5 16.5 132 16.3 132.5 16.3C133.3 16.2 133.5 16.3 133.4 16.8C133.3 17.4 133.8 17.6 134.1 17.1C134.2 16.9 135 16.9 135.8 17C136.9 17.1 137.4 17 137.7 16.7C138 16.3 138.4 16.2 139.2 16.4L140.3 16.6L139.3 17.1C138 17.7 138 18.1 139.4 18.6C140.4 19 140 19 135.5 19C132.8 18.9 130.2 18.9 129.7 18.9C129.3 18.9 128.7 19.1 128.5 19.5C128.1 20 128.1 20 128 19.5C128 19.1 127.8 18.9 127.4 19C127.1 19.1 126.6 19.2 126.4 19.3C126 19.1 125.7 18.6 126 18.1ZM116.9 16.7C118.6 16.8 120.1 16.6 120 16.3C119.9 15.9 120.4 15.8 121.7 16.1C124.5 16.6 124 17.6 120.9 17.6C119.8 17.6 118.7 17.8 118.4 17.9C118 18.1 117.5 18.1 116.9 17.9C116 17.5 115.9 16.6 116.9 16.7ZM113.1 17.1C113.4 17 114.2 16.9 114.8 16.9C115.9 16.9 116 16.9 115.4 17.4C115 17.7 114.3 17.9 113.7 17.9C112.5 17.9 112.2 17.5 113.1 17.1ZM103.1 19.3C103.4 19.3 103.7 19 103.8 18.6C103.9 18.2 104.4 17.8 104.8 17.7C105.3 17.6 106.5 17.3 107.5 17C109.1 16.6 109.4 16.6 110.1 17C110.5 17.3 111.1 17.5 111.4 17.5C111.8 17.5 111.8 17.6 111.2 17.8C110.7 18 110.2 18.3 109.9 18.6C109.6 18.8 109.3 19.1 109.2 19.1C109.1 19.1 108.7 19.2 108.4 19.3C108.1 19.4 107.4 19.3 106.7 19.2C105.8 18.9 105.4 19 104.4 19.5C103.7 19.8 103.1 20 102.9 19.9C102.4 19.8 102.6 19.3 103.1 19.3ZM100.8 17C101.2 17 101.3 17.1 101 17.2C100.8 17.3 100.5 17.3 100.4 17.2C100.3 17 100.4 16.9 100.8 17ZM98.7 16.9C99.2 16.9 99.6 17 99.7 17.2C99.8 17.4 99.5 17.5 99.1 17.5C98.6 17.5 98.2 17.4 98.1 17.2C98 17.1 98.3 16.9 98.7 16.9ZM89.4 31.5C89.2 31.5 89 31.4 88.9 31.2C88.8 31 88.9 30.9 89.2 30.9C89.5 30.9 89.7 31 89.7 31.2C89.7 31.4 89.5 31.5 89.4 31.5ZM86 17.9C86.2 17.9 86.6 17.5 87.1 17.1C88 16.1 89.8 16 91.5 16.8C92.7 17.4 93.2 18.2 92.1 17.7C91.5 17.4 91.2 17.4 88.8 17.7C87.8 17.8 87.1 18.1 87.1 18.2C87.1 18.4 86.8 18.5 86.4 18.5C86 18.5 85.7 18.4 85.7 18.2C85.7 18.1 85.8 17.9 86 17.9ZM85.6 29.4C86 29.2 87.5 29.8 87.3 30C87.2 30.1 86.7 30 86.2 29.9C85.6 29.7 85.4 29.6 85.6 29.4ZM84.2 20.9C84.6 20.9 84.7 21 84.4 21.1C84.2 21.2 83.9 21.2 83.8 21.1C83.7 21 83.9 20.9 84.2 20.9ZM80.2 19.9C80.7 19.9 81.1 19.7 81.1 19.4C81.1 18.9 82.6 18.1 83.1 18.4C83.7 18.7 83.4 19.6 82.7 19.9C82 20.2 80.5 20.6 79.9 20.6C79.8 20.6 79.6 20.5 79.5 20.3C79.4 20.1 79.7 19.9 80.2 19.9ZM69 3.1H70.6L69.3 3.4C68.4 3.6 67.9 3.6 67.7 3.4C67.5 3.2 67.9 3.1 69 3.1ZM44.3 10C43.1 10 43 9.8 44 9.5C44.4 9.4 44.9 9.5 45.1 9.6C45.3 9.9 45 10 44.3 10ZM57.1 3.8C54.4 4.1 40.4 3.9 41.9 3.6C42.5 3.5 43.4 3.4 43.7 3.4C44.1 3.4 45.4 3.3 46.7 3.1C48 2.9 49.1 2.8 49.3 2.9C49.9 3.3 55.4 3.1 56 2.7C56.4 2.4 57 2.4 57.8 2.6C59.7 3.1 59.4 3.6 57.1 3.8ZM60.6 3.6C60.4 3.7 60 3.7 59.8 3.6C59.6 3.5 59.8 3.4 60.2 3.4C60.6 3.4 60.8 3.5 60.6 3.6ZM63.8 3.2C63.2 3.5 62.4 3.7 62 3.6C61.4 3.5 61.4 3.5 62.2 3.4C63.3 3.3 63.7 2.8 62.7 2.6C62.2 2.5 62.3 2.4 63.2 2.3C64.9 2.1 65.1 2.5 63.8 3.2ZM71.9 10.1C68.7 10.2 66.5 10.1 66.5 9.9C66.5 9.7 70.1 9.4 72.1 9.5C72.4 9.5 73 9.3 73.5 9C74 8.7 74.6 8.6 74.7 8.7C74.9 8.8 75.8 8.7 76.7 8.4C78.6 7.9 79.6 8 79.6 8.7C79.7 9.5 77.3 10 71.9 10.1ZM82.4 2.4C82.2 2.4 82 2.3 81.9 2.1C81.8 1.9 81.9 1.8 82.2 1.8C82.5 1.8 82.7 1.9 82.7 2.1C82.7 2.2 82.6 2.4 82.4 2.4ZM84.9 3.7C84.7 3.7 84.3 3.6 84 3.4C83.6 3.1 83.7 3 84.4 3C84.9 3 85.3 3.1 85.3 3.3C85.4 3.5 85.2 3.7 84.9 3.7ZM87.1 2.2C86.9 2.3 86.6 2.3 86.5 2.2C86.3 2.1 86.5 2 86.9 2C87.3 2.1 87.3 2.1 87.1 2.2ZM90.4 3.7C89.5 3.7 88.7 3.6 88.7 3.4C88.7 3.2 89.3 3.2 90.3 3.3C92.4 3.5 92.4 3.7 90.4 3.7ZM98.8 3.2C98.7 3.4 97.6 3.5 96.3 3.5C94.1 3.5 93.9 3.5 93.9 2.8C94 2.1 94.1 2 95.6 2C97.3 2 99 2.6 98.8 3.2ZM101.8 2.7C101.7 2.9 101.5 3 101.3 3C101.1 3 101 2.9 101 2.7C101 2.5 101.2 2.4 101.5 2.4C101.8 2.4 101.9 2.5 101.8 2.7ZM106.8 3.5C106 3.6 105.6 3.6 105.6 3.4C105.6 3 106.7 2.7 107.9 2.7C109 2.7 108.3 3.2 106.8 3.5ZM114.6 3.7C114.3 3.7 113.7 3.5 113.4 3.4C112.9 3.2 113 3.1 114 3.1C114.7 3.1 115.2 3.2 115.2 3.4C115.2 3.5 114.9 3.7 114.6 3.7ZM121.5 3.3C121.3 3.3 121.1 3.2 121 3C120.9 2.8 120.9 2.7 121.1 2.7C121.3 2.7 121.5 2.8 121.6 3C121.8 3.2 121.7 3.3 121.5 3.3ZM124.5 3.7C123.6 3.7 123.6 3.1 124.5 2.9C125.2 2.7 125.4 2.1 124.8 2.1C124.6 2.1 124.5 2 124.6 1.9C124.8 1.7 126.5 2.5 126.5 2.8C126.5 3.1 125.3 3.7 124.5 3.7ZM130.8 3.6C130.6 3.7 130.2 3.7 130 3.6C129.8 3.5 130 3.4 130.4 3.4C130.9 3.4 131.1 3.5 130.8 3.6ZM146.2 2.4C145.8 2.7 145.5 2.7 145.2 2.4C145 2.1 145.1 2 145.9 2C146.7 2 146.8 2.1 146.2 2.4ZM150 4.5C147.8 4.2 147.7 4.2 149.2 3.9C150 3.8 150.6 3.9 151.1 4.2C151.8 4.7 151.7 4.7 150 4.5ZM154.6 4.7C154.2 4.7 153.9 4.5 153.9 4.2C153.9 3.9 154.1 3.7 154.5 3.8C155.3 3.9 155.5 4.7 154.6 4.7ZM160.9 4.1C160.9 4.2 160.7 4.5 160.4 4.7C159.9 5.1 158.2 4.9 155.7 4.2C155 4 155.3 3.4 156.4 2.9C157.4 2.5 157.5 2.5 158.1 3.1C158.4 3.5 158.7 4 158.7 4.2C158.7 4.5 158.8 4.6 159 4.5C159.2 4.4 159.2 3.9 159.1 3.3L158.9 2.3L161 2.4C162.3 2.5 163 2.6 162.9 2.8C162.8 3 162.3 3.1 161.8 3.1C161 3.1 160.8 3.3 160.9 4.1ZM163.1 4.7C162.7 4.9 162.3 5 162.2 5C162.1 5 162 4.9 162 4.7C162 4.5 162.4 4.4 162.9 4.4C163.6 4.4 163.7 4.4 163.1 4.7ZM167.9 5C167.5 5 167.2 4.9 167.2 4.7C167.2 4.5 167.5 4.4 167.9 4.4C168.3 4.4 168.6 4.5 168.6 4.7C168.5 4.9 168.2 5 167.9 5ZM166.5 3.4C165.3 3.4 164.2 3.4 164.1 3.3C163.6 2.8 165.1 2.4 167.5 2.5C172 2.5 171.1 3.3 166.5 3.4ZM173.6 3C173.8 3 173.8 3.2 173.6 3.4C173.4 3.6 173.1 3.7 173 3.6C172.8 3.4 173.2 3 173.6 3ZM172.6 10.8C171.3 10.7 171 10.5 171.7 10.2C172.5 9.9 174.8 10 174.8 10.3C174.8 10.7 173.9 10.9 172.6 10.8ZM176.5 10.4C176.1 10.3 175.8 10.2 175.8 10.1C175.8 10 176.1 10 176.5 10C176.9 10 177.2 10.1 177.2 10.3C177.2 10.4 176.9 10.5 176.5 10.4Z" fill="#4D5363"/>
<path d="M119.4 12C118.9 12.2 118.5 12.4 118.5 12.5C118.5 12.7 119.7 12.6 120.1 12.3C120.9 11.8 120.3 11.6 119.4 12Z" fill="#4D5363"/>
<path d="M156.7 13.6C156.5 13.4 156.1 13.4 155.8 13.5C155 13.8 155.1 14 156.1 14C156.8 13.9 157 13.8 156.7 13.6Z" fill="#4D5363"/>
<path d="M136.2 10.3C136.4 10.6 138 10.6 138 10.3C138 9.9 136.8 9.6 136.3 9.8C136.2 9.9 136.1 10.1 136.2 10.3Z" fill="#4D5363"/>
<path d="M115.4 10.5C115.6 10.6 116.1 10.6 116.4 10.5C116.7 10.4 116.5 10.3 116 10.3C115.5 10.4 115.2 10.4 115.4 10.5Z" fill="#4D5363"/>
<path d="M148 10.5C148.2 10.6 148.4 10.5 148.5 10.4C148.6 10.2 148.5 10.1 148.2 10.1C147.6 10 147.5 10.2 148 10.5Z" fill="#4D5363"/>
<path d="M172.2 13.8C172 13.9 171.9 14.1 171.9 14.2C171.9 14.3 172 14.3 172.2 14.3C172.4 14.3 172.5 14.1 172.5 13.9C172.5 13.7 172.4 13.7 172.2 13.8Z" fill="#4D5363"/>
<path d="M164.4 10.5C163.6 10.8 163.8 11.3 164.5 11.1C164.9 11 165.2 10.8 165.2 10.6C165.2 10.2 165.1 10.2 164.4 10.5Z" fill="#4D5363"/>
<path d="M152 15.9C152 16.1 152.1 16.2 152.3 16.2C152.5 16.2 152.6 16.1 152.6 15.9C152.6 15.7 152.5 15.6 152.3 15.6C152.1 15.6 152 15.8 152 15.9Z" fill="#4D5363"/>
<path d="M160.9 16.3C161.5 16.7 161.9 16.7 161.9 16.3C161.9 16.1 161.6 16 161.2 16C160.6 15.9 160.5 16 160.9 16.3Z" fill="#4D5363"/>
<path d="M195.9 15C195.6 15 195.4 15.1 195.5 15.2C195.6 15.3 195.9 15.3 196.1 15.2C196.4 15.1 196.3 15 195.9 15Z" fill="#4D5363"/>
<path d="M155.8 16.4C156.3 16.7 156.9 16.8 157.1 16.7C157.3 16.6 158 16.4 158.6 16.4C160.1 16.3 160.1 16.3 159.9 16.1C159.6 15.8 156.1 15.5 155.4 15.8C154.9 15.9 155 16.1 155.8 16.4Z" fill="#4D5363"/>
</g>
<defs>
<clipPath id="clip0">
<rect width="197.3" height="35.1" fill="white"/>
</clipPath>
</defs>
</svg>
