<?xml version="1.0" encoding="UTF-8"?>
<svg width="75px" height="72px" viewBox="0 0 75 72" version="1.1" xmlns="http://www.w3.org/2000/svg" xmlns:xlink="http://www.w3.org/1999/xlink">
    <title>g5163</title>
    <g id="Page-1" stroke="none" stroke-width="1" fill="none" fill-rule="evenodd">
        <g id="logo" transform="translate(-22.000000, -1847.000000)" fill-rule="nonzero">
            <g id="g3945" transform="translate(0.579297, 1048.239900)">
                <g id="g5163" transform="translate(58.922574, 834.403360) rotate(-59.901386) translate(-58.922574, -834.403360) translate(34.422574, 806.903360)">
                    <polygon id="path5165" fill="#5F862D" points="33.3812868 34.8192544 35.2075179 31.739193 47.4187351 34.9282832 40.2500964 39.9708617 39.0967764 40.287721 34.3352882 38.5807454"></polygon>
                    <path d="M35.3352854,34.5373062 L33.6879301,34.0560534 L34.7168887,29.892519 L35.5639906,29.5969421 L36.2628331,30.2558463 L36.537483,32.7758817 L35.8714854,33.1271832 C35.8714854,33.1271832 35.6935222,33.7679123 35.3352854,34.5373062 Z" id="path5167" fill="#611A7A"></path>
                    <polygon id="path5169" fill="#5F862D" points="24.3979163 48.5879578 23.8118869 48.9870247 18.6078947 53.5176807 14.669232 51.2689632 18.4034658 44.2911249 19.7663249 41.6335497 23.1598439 41.756207 24.9451893 46.8124141"></polygon>
                    <path d="M17.1802998,40.2949605 L17.5154781,39.9802272 L20.7041082,41.0925056 L21.7352528,42.6729533 L21.297412,42.5841385 C20.5235152,42.5203676 19.9809752,42.3707692 19.9809752,42.3707692 L18.5189479,42.7885891 L16.8445415,40.7262999 L17.1802998,40.2949605 L17.1802998,40.2949605 Z" id="path5171" fill="#611A7A"></path>
                    <polygon id="path5173" fill="#5F862D" points="2.93671858 37.574781 3.10366881 36.743437 6.41030614 34.0287962 12.0661712 35.8822845 11.0303983 38.6216312 6.19224869 45.8720414 2.03552857 44.1684676"></polygon>
                    <path d="M10.9895126,37.2430175 C10.5376496,36.7705088 10.1611494,36.2229993 10.1611494,36.2229993 L10.5397691,34.3831396 L14.7918893,36.8362858 L14.3021116,38.6842355 L12.7339721,39.0713747 L11.0031411,38.0083446 L10.9895126,37.2430175 Z" id="path5175" fill="#611A7A"></path>
                    <polygon id="path5177" fill="#5F862D" points="38.8727562 15.9334297 39.4932834 16.2911856 47.0223971 19.4047298 44.3626207 23.1149228 34.5908362 23.4811284 33.9355289 16.3594812 38.8727562 15.9334297"></polygon>
                    <path d="M35.3007888,21.585893 C35.641618,22.313747 35.7969545,22.8614419 35.7969545,22.8614419 L36.962199,23.9777107 L35.555047,26.4751444 L34.8795792,26.2596492 L33.2109294,23.1531809 L35.3007888,21.585893 Z" id="path5179" fill="#611A7A"></path>
                    <polygon id="path5181" fill="#5F862D" points="20.0488008 16.0029137 15.5291099 7.41646442 16.5024333 2.01981732 23.5758953 7.01171599 24.2957019 7.23924368 24.8497891 15.7392277 20.0488008 16.0029137"></polygon>
                    <path d="M23.8889735,7.1103183 C23.8903146,7.1571276 23.8922662,7.20319769 23.8923752,7.25001135 C23.8955152,8.50822573 23.5244316,10.1354445 22.5397376,11.788332 C22.1507133,12.4413377 21.6616987,13.0722325 21.1512982,13.6566373 C21.1512982,13.6566373 21.3134076,14.4632972 21.0542212,14.6912218 L25.8514851,18.6537399 L26.8361508,20.0711134 L28.3829958,20.2380581 L34.1547039,21.0114861 C34.1547039,21.0114861 34.95877,22.7544847 35.301082,21.5852825 C35.6433952,20.4160911 37.0925199,17.6162335 39.1598038,16.0983683 C39.1794725,15.9169554 39.143794,15.7360222 39.0371464,15.5532247 C38.6464954,14.8838864 38.2330596,14.8820221 38.2330596,14.8820221 C38.2330596,14.8820221 38.5120379,14.3857124 38.1138094,13.703149 C37.8998002,13.3363436 36.301389,12.4770774 34.5192687,12.3232487 C32.9653259,12.1859925 32.2530249,12.1800068 30.6760061,13.1000784 C30.6495939,12.0078722 30.3249151,11.0320761 29.8310335,10.1358654 C29.3238493,9.26655103 26.8676219,6.29430045 25.7901564,6.92292518 C25.2537351,7.23588886 25.1223555,7.51576887 25.1223555,7.51576887 C25.1223555,7.51576887 24.6030724,6.69283859 23.8991895,7.10350401 C23.895537,7.10563007 23.8925824,7.10815953 23.8889735,7.1103183 L23.8889735,7.1103183 Z" id="path5183" fill="#FED000"></path>
                    <path d="M17.6002305,16.3014016 L16.9175231,15.9019204 L17.4494645,14.4240687 L19.0917096,13.8073695 L19.8106178,13.8874402 C19.8106178,13.8874402 20.4696539,13.711228 21.1521813,13.6561794 L21.6388845,16.4462136 L17.6002305,16.3014016 L17.6002305,16.3014016 Z" id="path5185" fill="#611A7A"></path>
                    <polygon id="path5187" fill="#5F862D" points="3.08578156 19.9517378 2.97121636 19.2119561 3.20758736 9.71538849 9.09513847 12.9044809 11.7935994 20.3729485 5.66073366 22.4717514 3.08578156 19.9517378"></polygon>
                    <path d="M14.2561156,18.086747 L13.3949588,21.2724355 L10.7510122,21.3473927 L10.117708,20.1617053 C10.374898,19.8124318 10.6099312,19.4864795 11.006521,19.0830296 L11.391556,17.4564301 L13.9946168,17.3065156 L14.2561156,18.086747 L14.2561156,18.086747 Z" id="path5189" fill="#611A7A"></path>
                    <path d="M39.5618526,40.1596558 C39.5450349,40.1502793 39.5274552,40.1419168 39.5107454,40.1323986 C38.4174904,39.509572 37.1401578,38.1935408 36.1955908,36.5174095 C35.8473694,35.8994892 35.5539087,35.2340106 35.3355035,34.537666 C35.3355035,34.537666 33.9879106,33.9826552 33.9879106,33.9826552 L28.6828302,35.9415961 L26.8804491,36.077882 L25.9571121,37.3283107 L22.1176133,41.5656466 C22.1176133,41.5656466 21.296965,42.5836151 21.296965,42.5836151 C22.8566394,44.1331313 24.0701738,46.2651881 24.1513239,48.7558838 C24.2878344,48.8434993 24.4462913,48.8921697 24.6351388,48.8921697 C25.4103462,48.8921697 25.6198045,48.5378264 25.6198045,48.5378264 C25.6198045,48.5378264 25.9096279,49.0284557 26.6998703,49.0284557 C27.124547,49.0284557 28.6706343,48.0813885 29.7015674,46.6196077 C30.6032088,45.3465556 30.9690263,44.7350135 30.9690263,42.9092185 C31.9257195,43.4367976 32.9307093,43.6439631 33.9536876,43.669007 C34.9601394,43.669007 38.7645801,43.0493313 38.7645801,41.8018901 C38.7645801,41.1808516 38.5908156,40.9228569 38.5908156,40.9228569 C38.5908156,40.9228569 39.4973567,40.8927431 39.5618526,40.1596558 L39.5618526,40.1596558 Z" id="path5191" fill="#FED000"></path>
                    <path d="M3.05426572,36.9909976 C4.14336019,36.3619346 5.92134066,35.924217 7.84130814,35.951823 C8.60424427,35.9627913 9.38818043,36.0476484 10.1602913,36.2230211 C10.4815554,36.295994 11.1428342,34.5548925 11.1428342,34.5548925 L12.0968355,29.6485999 L12.8804795,28.0199833 L12.2569715,26.592383 L11.2211986,20.1937707 C11.2211986,20.1937707 10.4630565,20.0621512 10.1132956,20.1631009 C7.88894388,20.8050838 5.29632477,20.8095649 3.01678709,19.5089285 C2.9752526,19.5558 2.93874978,19.6094857 2.90435122,19.669059 C2.51674756,20.3404143 2.72036525,20.6980285 2.72036525,20.6980285 C2.72036525,20.6980285 2.15126366,20.7018445 1.75614247,21.3862614 C1.54380467,21.754048 1.58829384,23.5683514 2.33876471,25.1920508 C2.99042613,26.6094133 3.34019682,27.2297431 4.92138262,28.1426407 C3.98613422,28.7073767 3.30124194,29.4770759 2.76806532,30.3504723 C2.26483997,31.2220916 0.900700917,34.8238446 1.98101421,35.4475652 C2.51885291,35.7580899 2.82939397,35.7371673 2.82939397,35.7371673 C2.82939397,35.7371673 2.37969192,36.5786074 3.05426572,36.9909976 L3.05426572,36.9909976 Z" id="path5193" fill="#FED000"></path>
                    <path d="M17.3574715,1.25340654 C14.472747,1.26063831 11.9888742,3.57389422 11.9980283,7.23978991 C12.0057802,10.3436 14.7540902,11.8218038 16.1956341,12.0540895 C17.116288,12.2242397 17.8396652,12.4067974 17.8412865,13.0557909 C17.8445791,14.3745588 16.2991667,15.463505 14.7203392,15.4169388 C13.9437658,16.7786203 12.39958,17.6740514 11.1496485,16.9535678 C10.5873776,16.6294581 10.7168306,15.983452 11.0269912,15.1000795 C11.6512602,13.447662 11.8114638,10.5990227 9.12239566,9.0489853 C5.94634967,7.21824583 2.48467458,8.23626666 1.04404861,10.7355234 C-0.960689799,14.2134143 0.390413778,17.9956753 2.98612276,19.4918874 C2.99631695,19.4977749 3.00658528,19.5031064 3.01678709,19.5089285 C3.31595864,19.1713102 3.7936113,19.1495808 4.33194608,19.2567996 C4.33194608,19.2567996 4.03713895,18.7618637 4.49889631,17.9620835 C5.05366608,17.2195761 5.81555881,17.595638 6.26720594,17.8155707 C6.49780278,17.9372359 6.60192085,17.7221331 6.51252057,17.580483 C4.94574618,15.7263405 3.32519556,13.0379211 3.72206665,12.3505059 C3.98275651,11.8989853 4.32838193,11.9576645 4.97930413,12.3334756 C7.21433956,13.6238742 9.70436482,17.0882183 11.006521,19.0830296 C12.0441191,18.0249495 13.1613909,17.5676067 14.2024528,17.928012 C14.7347157,17.4230673 15.1180586,16.8950848 15.2995543,16.3913939 C15.9998142,16.3893224 16.661552,16.2897464 17.2825142,16.1154095 C17.4580298,15.010447 18.3917921,14.2623791 19.8106178,13.8871349 C17.3105815,9.58537283 16.3033676,4.71706039 17.0951211,4.25512858 C17.7957681,3.84635155 18.7803966,5.33583002 19.1871098,6.15972411 C20.0159112,7.77875269 20.0821418,8.18569696 20.6283332,9.22274983 C20.7136024,9.4387063 21.079553,9.79623656 21.0508195,9.41014295 C21.0488679,8.97982948 21.0900829,8.10279151 21.5823346,7.81559786 C22.3468047,7.36958425 23.231394,8.13927689 23.231394,8.13927689 C23.231394,8.13927689 23.3230817,7.4485821 23.8889735,7.1103183 C23.8047706,4.1613279 21.3107724,1.24356115 17.3574715,1.25340654 Z" id="path5195" fill="#05B8DF"></path>
                    <path d="M20.4136829,14.3777642 C19.5239747,15.1601543 18.4780316,15.7797646 17.2825142,16.1154095 C17.2625216,16.2412723 17.2552571,16.3722158 17.2552571,16.507226 C17.2552571,18.4417009 19.6323667,20.0969859 20.9417908,21.4816616 C21.2078732,21.7931784 21.9741565,22.7181236 21.9741565,23.8462329 L22.6283289,23.8462329 C22.6283289,22.706294 23.0430022,22.2338725 23.7083947,21.4033026 C25.089491,19.6988021 27.3574498,18.2728481 27.3574498,16.4390831 C27.3574498,14.7240176 25.7144534,13.6077488 22.2296926,13.6077488 C21.854564,13.6077488 21.5090738,13.6176705 21.1513473,13.6563538 C20.7837973,14.0585608 20.4136829,14.3777642 20.4136829,14.3777642 L20.4136829,14.3777642 Z" id="path5197" fill="#CD0284"></path>
                    <path d="M42.3352708,15.1885222 C41.2659312,15.1813604 40.2234444,15.4538341 39.3335737,15.9723093 C39.2748694,16.0136857 39.2171987,16.0562505 39.1598092,16.0983683 C39.1270275,16.4007595 38.9425488,16.6996072 38.6862157,16.9944536 C38.6862157,16.9944536 39.2600055,16.9872577 39.7253957,17.7849118 C40.0949082,18.6349325 39.3942591,19.1066235 38.9792304,19.3896838 C38.7592213,19.5295459 38.8936614,19.7309546 39.0610019,19.7235734 C41.4481444,19.2829229 44.5826308,19.2083473 44.9826245,19.8939417 C45.2453641,20.3442739 45.0253594,20.6156791 44.3761522,20.9944449 C42.2276714,22.2479264 38.2140712,22.7038627 35.7969545,22.8615618 C36.2518027,24.3769412 36.0980046,25.6356233 35.1427821,26.3436667 C35.322226,27.002331 35.5922978,27.5604491 35.9366475,27.965469 C35.6080317,28.5427979 35.3670662,29.131662 35.2007037,29.7235572 C36.0872533,30.4406827 36.3247484,31.5595464 35.8719117,33.1273031 C40.8361531,33.1416513 45.4528109,34.7166475 45.4528109,35.6315512 C45.4528109,36.4427249 43.6709381,36.5438163 42.75435,36.4799364 C40.938264,36.3799134 40.5522641,36.2343492 39.3812738,36.1835091 C39.1517738,36.1483364 38.6551163,36.2829106 39.0030804,36.4526792 C39.375746,36.6678365 40.1138105,37.1434089 40.1138105,37.7133129 C40.1138105,38.5983863 39.0030804,38.9773701 39.0030804,38.9773701 C39.0030804,38.9773701 39.5618526,39.4080336 39.5618526,40.0744717 C39.5618526,40.103506 39.5642295,40.1325622 39.5618526,40.1596558 C42.1650279,41.6043082 46.0440529,40.8143733 48.0183931,37.3487536 C49.4463466,34.8422377 48.5930257,31.4165334 45.3778536,29.6554142 C42.8544361,28.2732025 40.3554836,29.6897037 39.292688,31.0080464 C38.5235154,31.9053637 38.091693,32.1981276 37.5277855,31.8768745 C36.3819165,31.2240759 36.2424829,29.2951506 37.0678206,27.9484387 C36.2724593,26.5976382 36.3016681,24.8689442 37.5482284,24.1426493 C38.108986,23.8159229 38.6088783,24.2520706 39.2211379,24.9603648 C40.1503722,26.0866533 42.6824063,27.8721404 45.364225,26.3095952 C48.531709,24.4640878 49.2900648,21.0031672 47.8378142,18.5106288 C46.5115932,16.2344253 44.3767377,15.2025229 42.3352708,15.1885222 L42.3352708,15.1885222 Z" id="path5199" fill="#05B8DF"></path>
                    <path d="M35.0576035,33.4237195 C34.8351794,32.2261044 34.8509864,30.967793 35.2007037,29.7235572 C35.0759726,29.622662 34.9386945,29.5292244 34.7884388,29.444171 C33.1729613,28.5764659 30.8413526,29.8994314 28.6862374,30.3095865 C27.639687,30.5027636 27.0294979,30.6445555 26.0252551,30.1051577 L25.7152046,30.6809602 C26.7090233,31.2147648 27.1612254,32.3264108 27.3097497,32.7082185 C27.910015,34.5169941 28.2017933,37.4384951 29.9059962,38.3538567 C31.5833933,39.2548264 33.5165097,37.9826466 34.9110961,35.3862365 C35.0688618,35.0925131 35.2088252,34.826156 35.3361446,34.5359978 C35.1389138,33.9133239 35.0576035,33.4237195 35.0576035,33.4237195 Z" id="path5201" fill="#CD0284"></path>
                    <path d="M35.1427821,26.3436667 C34.8634048,25.3181861 34.8052685,24.0455702 35.0405677,22.7014313 C35.0405677,22.7014313 35.1901955,21.9278071 35.3008171,21.5854569 C35.1693295,21.2946446 35.0225987,21.0230759 34.8599889,20.7355017 C33.1447414,17.7021045 31.2933061,16.8351081 29.8003747,17.6792848 C28.2041342,18.5819009 28.0796059,21.2598971 27.2756783,23.3010893 C26.8802093,24.2890967 26.6734178,24.8830852 25.6811332,25.4441797 L26.001405,26.0097662 C26.9833897,25.4544938 28.1648555,25.6657261 28.5669872,25.7440087 C30.4168405,26.2022673 33.2067427,27.4593794 34.8906532,26.5072098 C34.9802149,26.4565659 35.0641877,26.4019207 35.1427821,26.3436667 Z" id="path5203" fill="#CD0284"></path>
                    <path d="M11.0815055,29.2499582 C10.4984908,29.2564999 9.95386833,29.3704894 9.4903676,29.6554142 C7.86828294,30.6525364 8.07982483,32.8992804 9.62324636,35.4100811 C9.802543,35.7017547 9.96876166,35.9611559 10.1610458,36.2230756 C10.1610458,36.2230756 10.6496471,36.3318972 11.115577,36.4901524 C12.3068685,36.8894264 13.4326446,37.5323361 14.3557744,38.4833392 C14.4810942,38.4327826 14.6030483,38.3735472 14.7237464,38.2993423 C16.2859492,37.3390282 16.3117759,34.6581536 17.0406068,32.5889629 C17.3997179,31.5871633 17.5856599,30.9849214 18.5567875,30.3879564 L18.2160727,29.8325859 C17.2550259,30.423358 16.0654342,30.2572855 15.660712,30.1937435 C14.3199847,29.9131581 12.571431,29.2332986 11.0815055,29.2499582 L11.0815055,29.2499582 Z" id="path5205" fill="#CD0284"></path>
                    <path d="M14.3557744,38.4833392 C13.3442539,38.8913247 12.1883052,38.5215755 10.9895126,37.2431374 C8.49450686,41.5455526 4.77120319,44.7847851 3.97760273,44.3265919 C3.27510558,43.9210051 4.08067085,42.3252279 4.59429645,41.5634006 C5.58895024,40.0406292 5.91025571,39.7820784 6.53977775,38.7933842 C6.68499093,38.612222 6.8130637,38.1169263 6.49207768,38.3334247 C6.11941205,38.548582 5.3399766,38.9454356 4.84642537,38.6605109 C4.07993491,38.2179742 4.30809605,37.0693675 4.30809605,37.0693675 C4.30809605,37.0693675 3.65186088,37.3378398 3.0747086,37.0046262 C3.06736007,37.0003741 3.06136676,36.9953588 3.05426572,36.9909976 C3.05210695,36.992306 3.04959929,36.9931782 3.04745142,36.9943775 C0.455485392,38.4970768 -0.843298571,42.2744424 1.17011307,45.7473452 C2.6169744,48.2429691 6.12128843,49.1975919 9.29275304,47.3589206 C11.9779408,45.8021758 11.7568851,42.6795604 11.2382343,41.3146407 C10.9258703,40.4320423 10.7244725,39.7151239 11.2859344,39.3895968 C12.426835,38.7281523 14.1425677,39.5214998 14.8906966,40.9125973 C16.4582233,40.9054014 18.0048295,41.7969511 18.0048295,43.2396846 C18.0048295,43.888678 17.3782098,44.099605 16.4579845,44.2720448 C15.0170249,44.5079394 12.2331214,45.9279949 12.2331214,49.0318355 C12.2331214,52.6977192 14.653316,55.0761045 17.5380503,55.0761045 C21.5523604,55.0761045 24.1581382,52.0176744 24.1581382,49.0216087 C24.1581382,48.9326194 24.1541913,48.8439463 24.1513239,48.7558511 C23.8798849,48.5816232 23.6988994,48.2570665 23.5652945,47.8631785 C23.5652945,47.8631785 23.2860872,48.3640346 22.3625714,48.3640346 C21.4421563,48.2548205 21.3859836,47.4102949 21.3506485,46.9091771 C21.3406942,46.6486639 21.1015342,46.6621071 21.0235623,46.8103753 C20.2012165,49.094309 18.6827287,51.8427269 17.8889865,51.8427269 C17.3676057,51.8427269 17.2450356,51.5142779 17.2450356,50.7626665 C17.2450356,48.2013856 18.9037866,44.5035237 19.9809752,42.3708565 C18.5122863,42.0048688 17.546222,41.2477516 17.3642858,40.122139 C16.648944,39.9024789 15.9862434,39.8278705 15.4460617,39.9245245 C15.1299242,39.3797079 14.7624123,38.9022166 14.3557744,38.4833065 L14.3557744,38.4833392 Z" id="path5207" fill="#05B8DF"></path>
                    <path d="M17.3642858,40.1221717 C18.3746135,40.4324021 19.4908202,41.0354072 20.5227116,41.8836616 C20.5227116,41.8836616 20.9971,42.2790761 21.2967534,42.5840621 C21.6312906,42.6180682 21.9548781,42.6264307 22.3046499,42.6264307 C25.7894107,42.6264307 27.4358142,41.5067711 27.4358142,39.7916839 C27.4358142,37.9579298 25.1678554,36.5319649 23.7867591,34.8274643 C23.1213666,33.9969053 22.7066933,33.5244838 22.7066933,32.384534 L22.0525209,32.384534 C22.0525209,33.5126542 21.2862376,34.4375994 21.0201552,34.7491054 C19.7107311,36.133792 17.3302143,37.7890661 17.3302143,39.7235409 C17.3302143,39.8608081 17.3436281,39.9943683 17.3642858,40.1221717 L17.3642858,40.1221717 Z" id="path5209" fill="#CD0284"></path>
                    <path d="M25.4854484,28.2127407 C25.4854484,29.9589731 24.0698478,31.3745737 22.3236154,31.3745737 C20.577383,31.3745737 19.1617824,29.9589731 19.1617824,28.2127407 C19.1617824,26.4665083 20.577383,25.0509077 22.3236154,25.0509077 C24.0698478,25.0509077 25.4854484,26.4665083 25.4854484,28.2127407 Z" id="path5211" fill="#CD0284"></path>
                    <path d="M14.2024528,17.9279684 C13.4403889,18.6509597 12.3708476,19.3266216 11.1326128,19.8155718 C10.6059375,20.023337 10.1179915,20.1619016 10.1179915,20.1619016 C9.95442547,20.4104435 9.77919232,20.6648838 9.61643206,20.9398869 C7.8415491,23.9387874 7.96671952,25.923241 9.44266753,26.7967683 C11.0207536,27.7307519 13.4052587,26.5038735 15.5755333,26.1834817 C16.6291967,26.0339052 17.2452951,25.9163504 18.2262941,26.4969393 L18.5601946,25.9381671 C17.5893789,25.3635966 17.1833831,24.2304284 17.0508282,23.8427767 C16.5261253,22.0106689 16.3135476,19.1210916 14.6487891,18.1358099 C14.5017737,18.0487941 14.3530596,17.980106 14.2024528,17.9279684 L14.2024528,17.9279684 Z" id="path5231" fill="#CD0284"></path>
                </g>
            </g>
        </g>
    </g>
</svg>